<svg width="32" height="32" viewBox="0 0 32 32" fill="none" xmlns="http://www.w3.org/2000/svg">
<path d="M15.0277 32C14.5774 31.8294 14.1202 31.654 13.9173 31.238C13.659 30.7085 13.5074 30.1268 13.3131 29.5664C13.2837 29.4815 13.2724 29.3903 13.2772 29.2791C13.4205 29.3378 13.5422 29.4153 13.6575 29.5015C14.8685 30.4077 16.0286 30.1462 16.9193 29.1519C17.8223 28.144 18.263 26.9113 18.3781 25.563C18.3836 25.4981 18.4502 25.4384 18.4884 25.3762C18.5331 26.0731 18.6272 26.7712 18.6106 27.4667C18.587 28.4563 18.4419 29.4423 17.9811 30.335C17.6219 31.0309 17.0893 31.581 16.3406 31.8813C16.2568 31.9149 16.1662 31.9315 16.0699 31.9779C15.7263 32 15.3916 32 15.0277 32Z" fill="#1E293B"/>
<path d="M17.5322 0C18.3577 0.331846 18.4889 1.09802 18.2752 1.8711C18.19 2.17934 18.049 2.47867 17.8926 2.75935C17.5896 3.30338 17.0075 3.33128 16.5108 3.21629C15.9647 3.08984 15.6995 2.78259 15.7045 2.12201C15.708 1.65715 15.8592 1.18627 15.9914 0.731697C16.1026 0.348815 16.4262 0.156189 16.8024 0.021026C17.0418 3.72529e-09 17.2726 0 17.5322 0Z" fill="#1E293B"/>
<path d="M18.4931 25.3507C18.4502 25.4384 18.3836 25.4981 18.3781 25.563C18.263 26.9113 17.8223 28.144 16.9193 29.1519C16.0286 30.1462 14.8685 30.4077 13.6575 29.5015C13.5422 29.4153 13.4205 29.3378 13.2806 29.2539C13.1489 28.1739 13.4891 27.1875 13.8884 26.2176C14.3728 25.0409 14.9052 23.883 15.3549 22.6936C15.5462 22.1874 15.5919 21.6236 15.6813 21.0823C15.7275 20.802 15.6346 20.539 15.3849 20.3845C15.1058 20.2117 14.8201 20.3206 14.5715 20.4687C14.3185 20.6193 14.0915 20.8136 13.8323 20.9735C13.6445 20.2786 13.3159 20.0755 12.7503 20.3885C12.3401 20.6154 11.943 20.906 11.6232 21.2463C11.2011 21.6955 10.8421 22.2084 10.4882 22.7164C9.63505 23.9409 8.54475 24.85 7.12548 25.3487C6.92736 25.4183 6.74633 25.5366 6.55738 25.6323C6.12362 25.5364 5.83694 25.2733 5.67971 24.8621C5.50202 24.3973 5.70388 24.0232 5.97917 23.6786C6.75381 22.709 7.84595 22.2676 8.97239 21.868C9.81539 21.569 10.6604 21.2591 11.4647 20.8715C12.57 20.3387 13.3917 19.5066 13.834 18.3287C14.1547 17.4747 13.809 16.8501 12.9145 16.6828C12.2318 16.5551 11.6587 16.839 11.0918 17.1322C10.3524 17.5146 9.7247 18.1055 8.89765 18.3255C8.01255 18.5609 7.14613 18.5627 6.3345 18.0664C5.68357 17.6684 5.23836 16.7 5.82944 15.9842C6.02162 15.7514 6.31836 15.5624 6.60533 15.4587C7.41883 15.1646 8.26226 15.1334 9.12509 15.2356C9.88179 15.3253 10.6498 15.3782 11.41 15.355C11.7869 15.3434 12.1709 15.1532 12.5263 14.989C12.7726 14.8751 12.8421 14.6468 12.7725 14.3446C12.6439 13.7856 12.2927 13.4112 11.8364 13.139C10.5495 12.3711 9.22931 11.6578 7.95669 10.8675C7.18328 10.3872 6.44695 9.83093 5.94584 9.03848C5.5346 8.38815 5.27482 7.69199 5.50738 6.91586C5.57764 6.68137 5.76009 6.4805 5.93045 6.26503C6.06396 6.38804 6.15941 6.50933 6.25219 6.63263C6.5935 7.08623 6.90131 7.5701 7.2811 7.9887C8.23219 9.03695 9.31857 9.93287 10.5239 10.6773C10.8363 10.8703 11.1771 11.0173 11.5048 11.1855C11.82 11.3454 12.12 11.5568 12.4533 11.655C13.2446 11.8881 14.0395 12.007 14.8471 11.6409C15.8936 11.1665 16.1272 10.3833 15.9701 9.46833C15.8132 8.55516 15.6162 7.64907 15.693 6.71895C15.7374 6.18093 15.8231 5.63457 16.2415 5.22937C16.5455 4.93494 16.908 4.76679 17.326 4.95116C17.7181 5.12412 17.9064 5.46214 18.0045 5.8785C18.1522 6.50524 17.8764 7.04193 17.6731 7.58673C17.3701 8.39888 17.4605 9.19477 17.8032 9.93802C18.174 10.7423 18.9636 10.6062 19.6081 10.1723C20.2735 9.72424 20.6179 9.02585 20.9954 8.36264C21.7171 7.09445 22.3688 5.78467 23.1299 4.54134C23.5273 3.8922 24.0935 3.34593 24.5889 2.75784C24.6528 2.68201 24.7498 2.63407 24.854 2.58734C24.959 2.85298 25.0798 3.09899 25.1168 3.35702C25.231 4.15171 24.7892 4.73889 24.337 5.31895C23.3273 6.61439 22.3858 7.95425 21.7872 9.49846C21.5618 10.0797 21.3773 10.6846 21.5703 11.3148C21.6137 11.4567 21.775 11.5626 21.882 11.685C22.4198 12.0508 22.9927 11.8838 23.5549 11.7828C24.6076 11.5936 25.4883 11.0131 26.401 10.5064C26.5769 10.4087 26.7655 10.3338 26.9741 10.2673C27.1881 10.5804 27.4061 10.8603 27.5559 11.1728C27.7047 11.4832 27.5845 11.8266 27.3062 12.025C26.9516 12.2778 26.5851 12.5138 26.227 12.7617C26.1639 12.8054 26.1166 12.8718 26.062 12.9278C25.341 13.165 24.6047 13.3652 23.9048 13.6537C23.495 13.8226 23.1298 14.1186 22.9893 14.5926C22.8194 15.1658 23.0986 15.8686 23.9041 15.8768C25.2923 15.891 26.6804 15.9168 28.1141 15.9581C28.3 16.0114 28.4421 16.0383 28.5803 16.0783C29.1603 16.2459 29.566 16.5929 29.687 17.2061C29.8606 18.0862 29.7344 18.8712 28.9385 19.4275C28.3963 19.1706 27.8513 18.9197 27.3127 18.6557C26.2616 18.1404 25.1883 17.6828 24.0335 17.4594C23.3971 17.3363 22.7525 17.3008 22.0679 17.5009C21.5303 17.5237 20.9054 18.0899 20.8693 18.6778C20.8095 19.6495 21.1308 20.5157 21.5696 21.3498C21.9554 22.0833 22.4061 22.7856 22.7502 23.5374C23.0433 24.1779 23.2562 24.8676 22.8704 25.5689C22.6227 25.0271 22.3547 24.4935 22.1315 23.9418C21.6399 22.7265 21.034 21.573 20.2722 20.5088C20.0372 20.1805 19.7337 19.8741 19.3999 19.6492C18.67 19.1574 18.1373 19.4741 17.948 20.232C17.7741 20.9285 17.8186 21.6524 17.9345 22.359C18.0843 23.2725 18.2678 24.1805 18.4382 25.0906C18.453 25.1697 18.4777 25.247 18.4931 25.3507Z" fill="#1E293B"/>
<path d="M21.8773 11.6617C21.775 11.5626 21.6137 11.4567 21.5703 11.3148C21.3773 10.6846 21.5618 10.0797 21.7872 9.49846C22.3858 7.95425 23.3273 6.61439 24.337 5.31895C24.7892 4.73889 25.231 4.15171 25.1168 3.35702C25.0798 3.09899 24.959 2.85299 24.8736 2.57844C25.4937 2.01292 26.5207 2.01641 26.925 2.73089C27.2189 3.25041 27.1681 3.79312 26.9317 4.31722C26.5759 5.10573 26.0175 5.7285 25.3707 6.30236C24.6531 6.93888 23.9834 7.63312 23.3299 8.33661C22.9214 8.77631 22.5493 9.25862 22.2215 9.76134C21.9928 10.112 21.8182 10.5174 21.7149 10.9226C21.6611 11.1341 21.8134 11.3981 21.8773 11.6617Z" fill="#1E293B"/>
<path d="M22.8795 25.5883C23.2562 24.8676 23.0433 24.1779 22.7502 23.5374C22.4061 22.7856 21.9554 22.0833 21.5696 21.3498C21.1308 20.5157 20.8095 19.6495 20.8693 18.6778C20.9054 18.0899 21.5303 17.5237 22.0425 17.5016C21.0622 18.061 21.1655 18.8707 21.6566 19.7484C22.1414 20.6147 22.7962 21.3462 23.5003 22.0404C24.093 22.6249 24.5739 23.2912 24.8788 24.0772C25.0758 24.5849 25.1421 25.0929 24.8295 25.5621C24.4613 26.1148 23.7883 26.2184 23.2012 25.8519C23.0896 25.7822 22.9924 25.6897 22.8795 25.5883Z" fill="#1E293B"/>
<path d="M6.57116 25.6525C6.74633 25.5366 6.92736 25.4183 7.12548 25.3487C8.54475 24.85 9.63505 23.9409 10.4882 22.7164C10.8421 22.2084 11.2011 21.6955 11.6232 21.2463C11.943 20.906 12.3401 20.6154 12.7503 20.3885C13.3159 20.0755 13.6445 20.2786 13.8126 20.9826C13.2265 21.7631 12.6417 22.521 12.0514 23.2747C11.3157 24.2141 10.3732 24.886 9.26605 25.3022C8.67333 25.5251 8.04721 25.6758 7.42367 25.7922C7.16068 25.8413 6.86549 25.7178 6.57116 25.6525Z" fill="#1E293B"/>
<path d="M2.11459 15.625C2.82541 15.6539 3.58076 16.0327 3.70906 16.6735C3.84539 17.3544 3.76983 18.3196 3.1355 18.6884C2.10249 19.2889 0.585861 19.1318 0.081465 17.7227C-0.232331 16.8461 0.391876 15.919 1.41345 15.6923C1.63173 15.6439 1.86124 15.6461 2.11459 15.625Z" fill="#1E293B"/>
<path d="M28.1343 30.7735C26.7945 31.0236 25.8989 30.3568 25.6724 29.0428C25.5855 28.5383 25.652 28.0746 25.8449 27.6399C26.1161 27.0287 26.8503 26.8437 27.5664 27.1634C28.3553 27.5156 28.7202 28.1993 28.9336 28.9857C29.058 29.4443 29.0717 29.9144 28.7714 30.3055C28.6223 30.4997 28.3636 30.6097 28.1343 30.7735Z" fill="#1E293B"/>
<path d="M11.4961 11.1656C11.1771 11.0174 10.8363 10.8703 10.5239 10.6773C9.31857 9.93287 8.23219 9.03695 7.2811 7.9887C6.90131 7.5701 6.5935 7.08623 6.25219 6.63263C6.15941 6.50933 6.06397 6.38806 5.95019 6.25677C6.55521 5.37359 7.65437 5.76164 8.05433 6.38023C8.47776 7.03512 8.85343 7.72085 9.25091 8.39256C9.69798 9.14809 10.1703 9.88629 10.7942 10.5121C11.0149 10.7335 11.2557 10.935 11.4961 11.1656Z" fill="#1E293B"/>
<path d="M28.9603 19.4388C29.7344 18.8713 29.8606 18.0862 29.687 17.2061C29.566 16.5929 29.1603 16.2459 28.5803 16.0783C28.4421 16.0383 28.3 16.0115 28.1433 15.9629C28.8599 15.965 29.5973 15.9402 30.325 16.0121C31.126 16.0912 31.7122 16.7344 31.6841 17.5687C31.6738 17.8758 31.6824 18.1914 31.6134 18.487C31.4349 19.2522 30.7443 19.5892 30.0896 19.6114C29.7227 19.6239 29.3514 19.5081 28.9603 19.4388Z" fill="#1E293B"/>
<path d="M26.0879 12.9314C26.1166 12.8719 26.1639 12.8054 26.227 12.7617C26.5851 12.5138 26.9516 12.2778 27.3062 12.025C27.5845 11.8266 27.7047 11.4832 27.5559 11.1728C27.4061 10.8603 27.1881 10.5804 26.9975 10.264C27.6735 9.99451 28.3312 9.9361 28.9769 10.366C29.4133 10.6565 29.4746 11.2267 29.295 11.5896C28.9551 12.2767 28.315 12.5369 27.6195 12.6823C27.1218 12.7865 26.616 12.8522 26.0879 12.9314Z" fill="#1E293B"/>
</svg>
